<svg xmlns="http://www.w3.org/2000/svg" width="20" height="17.064"><path d="M19.803.967a.856.856 0 0 0-.659-.308h-7.1a.856.856 0 1 0 0 1.712h6.068L16.95 8.66a1.5 1.5 0 0 1-1.473 1.224H7.793A1.5 1.5 0 0 1 6.32 8.641l-1.111-6.34a2.783 2.783 0 0 0-2.742-2.3H.856a.856.856 0 1 0 0 1.712h1.61a1.07 1.07 0 0 1 1.053.886l1.113 6.34a3.211 3.211 0 0 0 3.161 2.656h7.682a3.211 3.211 0 0 0 3.157-2.635l1.355-7.3a.856.856 0 0 0-.184-.693zM8.023 17.063a2.434 2.434 0 1 0-2.434-2.432 2.434 2.434 0 0 0 2.434 2.432zm0-3.155a.721.721 0 1 1-.721.721.73.73 0 0 1 .721-.719zm9.858.724a2.434 2.434 0 1 0-2.434 2.432 2.434 2.434 0 0 0 2.434-2.432zm-3.155 0a.721.721 0 1 1 .721.721.73.73 0 0 1-.721-.721z" fill="#fff"/></svg>