<svg xmlns="http://www.w3.org/2000/svg" width="69.875" height="81.001"><path d="M34.937.5a7.345 7.345 0 0 0-6.888 4.97 7.246 7.246 0 0 0-11.916 6.917A7.246 7.246 0 0 0 9.216 24.3a7.258 7.258 0 0 0 0 13.776 7.356 7.356 0 0 0-.872 8.457 7.079 7.079 0 0 0 3.371 2.994L.643 68.856a.93.93 0 0 0 .872 1.4l12.352-.872L18.255 79.9a.93.93 0 0 0 1.686.116l11.072-19.327a7.055 7.055 0 0 0 7.847 0l11.073 19.327a.93.93 0 0 0 1.686-.116l4.388-10.521 12.352.872a.93.93 0 0 0 .872-1.4l-8.573-14.904a.918.918 0 1 0-1.6.9l7.669 13.428-11.276-.814a.93.93 0 0 0-.93.552l-3.919 9.417-10.318-17.99a7.645 7.645 0 0 0 1.54-2.528 7.246 7.246 0 0 0 11.916-6.917 7.246 7.246 0 0 0 6.917-11.916 7.258 7.258 0 0 0 0-13.776 7.246 7.246 0 0 0-6.917-11.916A7.246 7.246 0 0 0 41.827 5.47 7.346 7.346 0 0 0 34.937.5zm0 1.86a5.54 5.54 0 0 1 5.522 4.854.93.93 0 0 0 1.657.436 5.6 5.6 0 0 1 9.591 5.58.93.93 0 0 0 1.192 1.192 5.6 5.6 0 0 1 5.58 9.591.93.93 0 0 0 .436 1.657 5.568 5.568 0 0 1 0 11.044.93.93 0 0 0-.436 1.657 5.6 5.6 0 0 1-5.58 9.591.93.93 0 0 0-1.192 1.192 5.6 5.6 0 0 1-9.591 5.58.93.93 0 0 0-1.657.436 5.568 5.568 0 0 1-11.044 0 .93.93 0 0 0-1.657-.436 5.6 5.6 0 0 1-9.591-5.58.93.93 0 0 0-1.192-1.192 5.6 5.6 0 0 1-5.58-9.591.93.93 0 0 0-.436-1.657 5.568 5.568 0 0 1 0-11.044.93.93 0 0 0 .436-1.657 5.6 5.6 0 0 1 5.58-9.591.93.93 0 0 0 1.192-1.192 5.6 5.6 0 0 1 9.591-5.58.93.93 0 0 0 1.657-.436 5.54 5.54 0 0 1 5.522-4.854zm0 9.3a19.53 19.53 0 1 0 19.53 19.53 19.544 19.544 0 0 0-19.53-19.53zm0 1.86a17.67 17.67 0 1 1-17.67 17.67 17.656 17.656 0 0 1 17.67-17.67zm7.382 11.131a.93.93 0 0 0-.639.32l-9.653 10.521-3.953-3.168a.93.93 0 0 0-1.163 1.453l4.654 3.723a.93.93 0 0 0 1.279-.116l10.23-11.16a.93.93 0 0 0-.756-1.569zM16.133 49.994a7.246 7.246 0 0 0 11.916 6.917 7.644 7.644 0 0 0 1.54 2.528L19.272 77.43l-3.924-9.416a.93.93 0 0 0-.93-.552l-11.276.814 10.463-18.253a7.854 7.854 0 0 0 2.528-.029z" fill="#121313" stroke="#121313"/></svg>