<svg xmlns="http://www.w3.org/2000/svg" width="9.348" height="16"><defs><style>.a{fill:#fff}</style></defs><path class="a" d="M7.551 16a1.8 1.8 0 0 0 1.8-1.8V1.8a1.8 1.8 0 0 0-1.8-1.8H1.8A1.8 1.8 0 0 0 0 1.8v12.4A1.8 1.8 0 0 0 1.8 16zM1.079 1.8a.721.721 0 0 1 .719-.719h5.753a.721.721 0 0 1 .719.719v1.436H1.079zm0 2.517H8.27v7.191H1.079zm0 9.888v-1.621H8.27V14.2a.721.721 0 0 1-.719.719H1.8a.721.721 0 0 1-.721-.719z"/><path class="a" d="M5.214 1.438H4.135a.54.54 0 1 0 0 1.079h1.079a.54.54 0 0 0 0-1.079zM3.775 14.382h1.8a.54.54 0 0 0 0-1.079h-1.8a.54.54 0 1 0 0 1.079z"/></svg>