<svg xmlns="http://www.w3.org/2000/svg" width="16" height="16"><defs><style>.a{fill:#fff}</style></defs><path class="a" d="M2.149 5.734L.89 6.18a1.356 1.356 0 0 0-.891 1.278v1.085A1.356 1.356 0 0 0 .89 9.821l1.259.446a.194.194 0 0 1 .116.271l-.562 1.2a1.356 1.356 0 0 0 .271 1.53l.755.755a1.356 1.356 0 0 0 1.53.271l1.2-.562a.194.194 0 0 1 .271.116l.446 1.259a1.356 1.356 0 0 0 1.278.891h1.085a1.356 1.356 0 0 0 1.278-.891l.446-1.259a.194.194 0 0 1 .271-.116l1.2.562a1.356 1.356 0 0 0 1.53-.271l.755-.755a1.356 1.356 0 0 0 .271-1.53l-.562-1.2a.194.194 0 0 1 .116-.271l1.259-.446a1.356 1.356 0 0 0 .891-1.278V7.458a1.356 1.356 0 0 0-.891-1.278l-1.259-.446a.194.194 0 0 1-.116-.271l.562-1.2a1.356 1.356 0 0 0-.271-1.53l-.755-.755a1.356 1.356 0 0 0-1.53-.271l-1.2.562a.194.194 0 0 1-.271-.116L9.817.894A1.356 1.356 0 0 0 8.541 0h-1.1a1.356 1.356 0 0 0-1.278.891L5.717 2.15a.194.194 0 0 1-.271.116l-1.2-.562a1.356 1.356 0 0 0-1.53.271l-.755.755a1.356 1.356 0 0 0-.271 1.53l.562 1.2a.194.194 0 0 1-.116.271zm.387 1.085a1.356 1.356 0 0 0 .775-1.86l-.562-1.2a.194.194 0 0 1 .039-.213l.736-.755a.194.194 0 0 1 .213-.039l1.2.562a1.356 1.356 0 0 0 1.86-.775l.446-1.259a.194.194 0 0 1 .174-.136h1.082a.194.194 0 0 1 .174.136l.465 1.278a1.356 1.356 0 0 0 1.86.775l1.201-.563a.194.194 0 0 1 .213.039l.775.736a.194.194 0 0 1 .039.213l-.562 1.2a1.356 1.356 0 0 0 .775 1.86l1.259.446a.194.194 0 0 1 .136.174v1.085a.194.194 0 0 1-.136.174l-1.278.465a1.356 1.356 0 0 0-.775 1.86l.562 1.2a.194.194 0 0 1-.039.213l-.736.775a.194.194 0 0 1-.213.039l-1.2-.562a1.356 1.356 0 0 0-1.86.775l-.446 1.259a.194.194 0 0 1-.174.136h-1.1a.194.194 0 0 1-.174-.136l-.446-1.278a1.356 1.356 0 0 0-1.86-.775l-1.2.562a.194.194 0 0 1-.213-.039l-.775-.736a.194.194 0 0 1-.039-.213l.562-1.2a1.356 1.356 0 0 0-.775-1.86L1.26 8.736a.194.194 0 0 1-.136-.174v-1.1a.194.194 0 0 1 .136-.174z"/><path class="a" d="M7.98 10.867A2.867 2.867 0 1 0 5.113 8a2.867 2.867 0 0 0 2.867 2.867zm0-4.591A1.7 1.7 0 1 1 6.28 8a1.724 1.724 0 0 1 1.7-1.7z"/></svg>