<svg xmlns="http://www.w3.org/2000/svg" height="512" viewBox="0 -73 512.001 512" width="512"><path d="M177.5 303.688a154.391 154.391 0 0 1-6.473-5.864c-29.746-28.488-46.511-67.453-46.511-109.277 0-24.27 5.726-47.875 16.668-69.168a152.427 152.427 0 0 1 8.726-14.856 15.06 15.06 0 0 0 2.492-7.09c.172-1.937 3.403-42.128-20.453-68.995C108.016 1.512 67.54.055 65.83.008c-8.032-.223-14.821 5.816-15.544 13.8-.152 1.708-3.488 42.083 20.453 69.028 12.297 13.836 28.957 20.937 42.485 24.586a181.253 181.253 0 0 0-8.375 19.605c-4.727-6.152-10.496-11.964-17.555-16.668-29.984-19.98-69.512-11.109-71.18-10.722-7.808 1.812-12.86 9.39-11.527 17.297.285 1.687 7.309 41.57 37.297 61.566 15.707 10.469 34.031 13.016 48.156 13.016a119.6 119.6 0 0 0 4.176-.075c.094 6.063.465 12.075 1.14 18.016-6.023-2.996-12.632-5.375-19.78-6.633-35.505-6.238-68.122 17.79-69.493 18.817-6.418 4.8-7.992 13.77-3.594 20.468.942 1.434 23.418 35.121 58.91 41.368a69.726 69.726 0 0 0 12.036 1.027c16.39 0 31.39-5.461 41.96-10.66a177.586 177.586 0 0 0 5.477 9.586c-.816.02-1.633.035-2.453.086-35.98 2.172-62.121 33.12-63.215 34.437-5.125 6.16-4.574 15.246 1.262 20.742 1.2 1.13 28.71 26.668 62.824 26.668a65.13 65.13 0 0 0 4.082-.125c35.973-2.183 62.113-33.117 63.207-34.43 5.129-6.163 4.578-15.25-1.258-20.75-.363-.335-3.164-2.933-7.82-6.37zm-86.816 22.527c7.601-5.754 18.097-11.719 29.566-12.414 11.492-.7 22.621 3.949 30.848 8.742-7.598 5.754-18.098 11.719-29.563 12.418-11.496.7-22.617-3.95-30.851-8.746zm-20.36-93.504c11.332 1.988 21.082 9.098 27.969 15.668-8.727 3.836-20.332 7.203-31.645 5.219-11.335-1.996-21.085-9.106-27.98-15.684 8.727-3.836 20.32-7.2 31.656-5.203zM39.402 127.656c9.532 0 21.508 1.586 31.063 7.953 9.578 6.383 15.644 16.813 19.308 25.602-9.53 0-21.503-1.582-31.062-7.953-9.574-6.383-15.64-16.809-19.309-25.602zm54.016-64.969c-7.648-8.609-10.867-20.242-12.18-29.68 9.219 2.415 20.387 6.981 28.032 15.583 7.644 8.605 10.863 20.238 12.18 29.672-9.223-2.422-20.403-6.992-28.032-15.575zm412.5 158.953c-1.371-1.023-33.992-25.054-69.488-18.812-7.149 1.254-13.758 3.637-19.782 6.633a185.987 185.987 0 0 0 1.137-18.02c1.344.047 2.735.079 4.172.079 14.129 0 32.457-2.551 48.164-13.02 29.984-19.992 37.012-59.875 37.293-61.563 1.332-7.906-3.715-15.484-11.523-17.296-1.672-.387-41.196-9.258-71.184 10.722-7.059 4.703-12.828 10.516-17.55 16.668a180.384 180.384 0 0 0-10.27-23.285c12.742-.91 30.465-5.254 44.379-20.91 23.941-26.945 20.601-67.32 20.449-69.027-.719-7.985-7.547-14.004-15.54-13.801-1.71.047-42.187 1.504-66.128 28.437-23.848 26.86-20.621 67.051-20.45 68.989a15.109 15.109 0 0 0 2.497 7.09 151.605 151.605 0 0 1 8.722 14.855c10.942 21.293 16.672 44.898 16.672 69.168 0 41.824-16.765 80.789-46.511 109.277a155.387 155.387 0 0 1-6.497 5.88c-4.644 3.433-7.437 6.019-7.8 6.358-5.832 5.497-6.383 14.586-1.254 20.747 1.094 1.316 27.234 32.25 63.203 34.433 1.371.082 2.73.125 4.082.125 34.113 0 61.629-25.539 62.828-26.668 5.836-5.496 6.387-14.582 1.262-20.742-1.098-1.316-27.235-32.266-63.211-34.437a74.477 74.477 0 0 0-2.457-.086 180.37 180.37 0 0 0 5.476-9.586c10.57 5.199 25.57 10.66 41.965 10.66 3.946 0 7.977-.317 12.04-1.031 35.484-6.243 57.96-39.934 58.898-41.364 4.398-6.703 2.824-15.668-3.594-20.472zm-114.16 92.16c11.488.696 21.976 6.653 29.566 12.41-8.23 4.798-19.36 9.45-30.855 8.747-11.492-.695-21.985-6.656-29.574-12.41 8.234-4.793 19.363-9.438 30.863-8.746zm-53.965 6.743c-.238.187-.469.379-.711.562l.484-2.902c.196.66.258 1.453.227 2.34zm92.96-287.535c-1.315 9.445-4.538 21.086-12.167 29.676-7.645 8.601-18.813 13.168-28.023 15.586 1.32-9.442 4.539-21.086 12.164-29.676 7.644-8.598 18.808-13.168 28.027-15.586zm10.778 102.601c9.57-6.379 21.524-7.964 31.047-7.964h.027c-3.667 8.796-9.734 19.226-19.312 25.609-9.578 6.383-21.535 7.969-31.055 7.969h-.011c3.664-8.797 9.726-19.227 19.304-25.614zm-27.82 112.786c6.898-6.583 16.656-13.7 27.969-15.688 11.332-1.992 22.922 1.367 31.644 5.203-6.898 6.574-16.652 13.695-27.96 15.684-11.34 1.988-22.934-1.371-31.653-5.2zM339.55 175.52a15.17 15.17 0 0 0-7.738-23.805l-39.832-11.727-23.46-34.261a15.173 15.173 0 0 0-25.036 0l-23.46 34.261-39.833 11.727c-4.804 1.414-8.597 5.101-10.144 9.863s-.645 9.977 2.406 13.942l25.336 32.902-1.156 41.508a15.167 15.167 0 0 0 20.25 14.715L256 250.715l39.121 13.93a15.168 15.168 0 0 0 20.25-14.715l-1.156-41.508zm-111.976 53.113l.692-24.766a15.148 15.148 0 0 0-3.145-9.676l-15.113-19.629 23.765-6.996a15.158 15.158 0 0 0 8.23-5.98L256 141.148l14 20.438a15.144 15.144 0 0 0 8.23 5.98l23.766 6.996-15.113 19.63a15.148 15.148 0 0 0-3.145 9.675l.692 24.766-23.34-8.309a15.16 15.16 0 0 0-10.176 0zm0 0" fill="#121313"/></svg>