<svg xmlns="http://www.w3.org/2000/svg" viewBox="0 0 512 512"><path d="M493.449 250.17h-86.923a7.949 7.949 0 0 0-7.95 7.95v13.25h-68.909c0-.177.006-.353.006-.53a7.949 7.949 0 0 0-7.95-7.95h-7.225c-4.329-4.094-12.383-24.353-18.905-40.763-11.266-28.344-25.286-63.62-44.912-92.629-23.872-35.285-51.327-53.176-81.604-53.176-31.497 0-61.258 20.438-86.065 59.106a7.95 7.95 0 0 0 13.383 8.585c22.047-34.365 46.502-51.79 72.682-51.79 57.773 0 90.25 81.708 111.739 135.776 5.926 14.909 10.55 26.54 14.918 34.89H38.54c6.058-8.645 28.818-62.838 34.265-74.236a7.95 7.95 0 0 0-14.346-6.857c-5.602 11.722-28.278 65.78-33.814 73.231-2.8 3.766-6.05 6.398-9.665 7.862H7.95a7.949 7.949 0 0 0-7.95 7.95c0 90.891 73.945 164.836 164.836 164.836 85.346 0 155.747-65.2 164.019-148.406h69.72V309a7.949 7.949 0 0 0 7.95 7.95h86.923c10.228 0 18.551-8.322 18.551-18.551v-29.681c.001-10.226-8.321-18.548-18.55-18.548zM164.836 419.776c-79.456 0-144.581-62.544-148.727-140.986h.294l.026.002.025-.002h297.107c-4.143 78.443-69.268 140.986-148.725 140.986zm331.263-121.374a2.652 2.652 0 0 1-2.65 2.65h-78.973V266.07h78.973a2.652 2.652 0 0 1 2.65 2.65v29.682z"/><path d="M166.957 106.004c-12.567 0-22.791 10.224-22.791 22.791s10.224 22.791 22.791 22.791 22.791-10.224 22.791-22.791-10.225-22.791-22.791-22.791zm0 29.681c-3.799 0-6.89-3.091-6.89-6.89s3.091-6.89 6.89-6.89 6.89 3.091 6.89 6.89-3.091 6.89-6.89 6.89zm33.921 16.961c-12.567 0-22.791 10.224-22.791 22.791s10.224 22.791 22.791 22.791 22.791-10.224 22.791-22.791-10.224-22.791-22.791-22.791zm0 29.681a6.898 6.898 0 0 1-6.89-6.89c0-3.799 3.091-6.89 6.89-6.89s6.89 3.091 6.89 6.89a6.898 6.898 0 0 1-6.89 6.89zm29.681 25.441c-12.567 0-22.791 10.224-22.791 22.791s10.224 22.791 22.791 22.791 22.791-10.224 22.791-22.791-10.224-22.791-22.791-22.791zm0 29.681c-3.799 0-6.89-3.091-6.89-6.89s3.091-6.89 6.89-6.89 6.89 3.091 6.89 6.89-3.091 6.89-6.89 6.89zm-63.602-29.681c-12.567 0-22.791 10.224-22.791 22.791s10.224 22.791 22.791 22.791 22.791-10.224 22.791-22.791-10.225-22.791-22.791-22.791zm0 29.681c-3.799 0-6.89-3.091-6.89-6.89s3.091-6.89 6.89-6.89 6.89 3.091 6.89 6.89-3.091 6.89-6.89 6.89zm-63.603-29.681c-12.567 0-22.791 10.224-22.791 22.791s10.224 22.791 22.791 22.791 22.791-10.224 22.791-22.791-10.224-22.791-22.791-22.791zm0 29.681c-3.799 0-6.89-3.091-6.89-6.89s3.091-6.89 6.89-6.89c3.799 0 6.89 3.091 6.89 6.89s-3.091 6.89-6.89 6.89zm29.681-84.803c-12.567 0-22.791 10.224-22.791 22.791s10.224 22.791 22.791 22.791 22.791-10.224 22.791-22.791-10.224-22.791-22.791-22.791zm0 29.681a6.898 6.898 0 0 1-6.89-6.89c0-3.799 3.091-6.89 6.89-6.89s6.89 3.091 6.89 6.89a6.898 6.898 0 0 1-6.89 6.89zm142.115 146.2a7.954 7.954 0 0 0-11.013 2.267c-22.994 34.918-60.983 56.033-99.102 55.063l-.202-.002a7.95 7.95 0 0 0-.194 15.899c.957.023 1.911.035 2.867.035 42.596 0 84.495-23.653 109.913-62.25a7.953 7.953 0 0 0-2.269-11.012zm12.702-35.694c-4.247-1.123-8.594 1.419-9.711 5.666a117.07 117.07 0 0 1-3.563 11.2 7.951 7.951 0 0 0 4.66 10.233 7.945 7.945 0 0 0 2.786.507 7.954 7.954 0 0 0 7.447-5.166 132.553 132.553 0 0 0 4.047-12.729 7.95 7.95 0 0 0-5.666-9.711z"/></svg>