<svg xmlns="http://www.w3.org/2000/svg" viewBox="0 0 511.999 511.999" width="512" height="512"><path d="M187.727 342.117a15.785 15.785 0 0 0-21.228-1.534 60.087 60.087 0 0 0-22.835 42.894l-.221 3.049a224.05 224.05 0 0 1-22.627-26.384l7.984 1.418c1.319.234 2.641.35 3.953.35 4.531 0 8.949-1.381 12.743-4.031a22.19 22.19 0 0 0 9.202-14.407l1.322-7.448a60.096 60.096 0 0 0-11.616-47.185 15.786 15.786 0 0 0-20.955-3.72c-12.764 8.02-22.002 20.59-25.943 35.023a226.193 226.193 0 0 1-13.09-37.343l9.729 4.903a22.29 22.29 0 0 0 10.057 2.404 22.284 22.284 0 0 0 19.469-11.446 7.5 7.5 0 1 0-13.09-7.324 7.31 7.31 0 0 1-9.685 2.972l-14.271-7.192c-3.612-1.821-5.07-6.241-3.25-9.854l3.405-6.755a45.064 45.064 0 0 1 28.177-23.108.838.838 0 0 1 1.009.509 44.699 44.699 0 0 1 2.953 17.974 7.5 7.5 0 0 0 7.19 7.798c4.121.165 7.63-3.053 7.798-7.19a59.63 59.63 0 0 0-3.941-23.967 15.78 15.78 0 0 0-19.005-9.58c-13.607 3.763-25.395 12.241-33.342 23.727a223.857 223.857 0 0 1 1.686-38.477l6.855 6.856v.001c4.355 4.355 10.075 6.531 15.795 6.531 5.719 0 11.439-2.176 15.793-6.529l5.35-5.349a60.088 60.088 0 0 0 17.5-45.334 15.786 15.786 0 0 0-15.048-15.051c-11.832-.568-23.487 2.404-33.518 8.342a226.582 226.582 0 0 1 6.348-15.116 22.18 22.18 0 0 0 9.229 2.017c7.862 0 15.5-4.153 19.574-11.504l3.667-6.614a60.088 60.088 0 0 0 4.325-48.402 15.784 15.784 0 0 0-18.613-10.317c-16.442 3.857-30.568 14.541-38.758 29.312l-3.667 6.615a22.187 22.187 0 0 0-1.937 16.984 22.2 22.2 0 0 0 10.642 13.381l2.36 1.308a240.773 240.773 0 0 0-14.087 37.959c-.333-.38-.66-.765-1.021-1.126l-5.349-5.35c-11.942-11.944-28.478-18.328-45.334-17.5A15.786 15.786 0 0 0 4.36 154.355a60.104 60.104 0 0 0 17.491 45.337l5.349 5.351c4.355 4.354 10.076 6.532 15.795 6.532 5.72 0 11.439-2.177 15.793-6.53l5.168-5.167a239.052 239.052 0 0 0-.35 51.196l-4.91-2.475a60.097 60.097 0 0 0-48.534-2.419 15.784 15.784 0 0 0-9.579 19.005 60.097 60.097 0 0 0 30.813 37.574l6.756 3.405a22.227 22.227 0 0 0 10.03 2.401c2.354 0 4.719-.376 7.018-1.135a22.184 22.184 0 0 0 12.951-11.159l2.829-5.612a241.267 241.267 0 0 0 17.021 44.394l-4.381-.778c-16.627-2.953-33.827 1.284-47.185 11.616a15.782 15.782 0 0 0-3.721 20.954 60.084 60.084 0 0 0 40.304 27.148l7.447 1.322c1.319.234 2.641.35 3.953.35 4.531 0 8.949-1.381 12.742-4.03a22.186 22.186 0 0 0 9.202-14.407l1.638-9.223a238.993 238.993 0 0 0 21.246 25.465c-15.904-.422-31.452 5.523-43.013 16.555a15.78 15.78 0 0 0-1.534 21.226 60.094 60.094 0 0 0 42.895 22.836l7.544.545c.551.04 1.099.06 1.645.06 5.361 0 10.486-1.903 14.581-5.446a22.193 22.193 0 0 0 7.664-15.281v-.001l.972-13.49a242.29 242.29 0 0 0 26.246 16.852 7.5 7.5 0 0 0 7.273-13.119 228.15 228.15 0 0 1-13.532-8.135c.461.028.921.05 1.378.05 5.361 0 10.486-1.903 14.581-5.446a22.19 22.19 0 0 0 7.663-15.281l.546-7.545a60.084 60.084 0 0 0-16.428-45.733zM87.255 100.926l3.667-6.615a45.057 45.057 0 0 1 29.066-21.981.837.837 0 0 1 .986.547 45.06 45.06 0 0 1-3.244 36.298l-3.667 6.614c-1.961 3.539-6.436 4.823-9.975 2.86l-13.976-7.748a7.288 7.288 0 0 1-3.496-4.396 7.3 7.3 0 0 1 .639-5.579zm-1.786 71.843l5.35-5.349c8.957-8.954 21.36-13.752 33.998-13.118a.837.837 0 0 1 .799.799 45.062 45.062 0 0 1-13.124 33.996l-5.35 5.348c-2.859 2.861-7.515 2.859-10.376 0l-11.299-11.301c-2.859-2.861-2.859-7.516.002-10.375zm-25.984 10.372L48.184 194.44c-2.861 2.859-7.515 2.86-10.376-.001l-5.349-5.35a45.069 45.069 0 0 1-13.117-33.998.837.837 0 0 1 .799-.799 45.063 45.063 0 0 1 33.995 13.124l5.349 5.35c2.86 2.861 2.86 7.514 0 10.375zm2.464 92.111l-7.192 14.271v.001a7.29 7.29 0 0 1-4.254 3.665 7.293 7.293 0 0 1-5.6-.416l-6.755-3.405a45.07 45.07 0 0 1-23.108-28.177.839.839 0 0 1 .509-1.009 44.941 44.941 0 0 1 16.141-2.992 45.004 45.004 0 0 1 20.256 4.806L58.7 265.4c3.612 1.821 5.069 6.241 3.249 9.852zm32.438 83.623l-2.794 15.734v.001a7.284 7.284 0 0 1-3.021 4.732 7.291 7.291 0 0 1-5.484 1.208l-7.448-1.322a45.06 45.06 0 0 1-30.224-20.358.837.837 0 0 1 .197-1.111 45.073 45.073 0 0 1 27.553-9.4c2.609 0 5.231.227 7.833.689l7.447 1.322c3.983.706 6.649 4.523 5.941 8.505zm16.569-17.901a7.287 7.287 0 0 1-1.209-5.483l1.322-7.447a45.066 45.066 0 0 1 20.358-30.225.837.837 0 0 1 1.112.197 45.065 45.065 0 0 1 8.71 35.385l-1.322 7.447a7.29 7.29 0 0 1-3.022 4.733 7.302 7.302 0 0 1-5.483 1.209l-15.735-2.794a7.289 7.289 0 0 1-4.731-3.022zm34.261 75.977l-1.151 15.937a7.29 7.29 0 0 1-2.518 5.02 7.328 7.328 0 0 1-5.33 1.77l-7.544-.545a45.065 45.065 0 0 1-32.167-17.125.836.836 0 0 1 .081-1.126 45.076 45.076 0 0 1 34.296-12.323l7.544.545a7.29 7.29 0 0 1 5.02 2.518 7.285 7.285 0 0 1 1.769 5.329zm43.98-30.183l-.546 7.546a7.289 7.289 0 0 1-2.517 5.018 7.319 7.319 0 0 1-5.329 1.77h-.001l-15.938-1.151a7.288 7.288 0 0 1-5.02-2.518 7.292 7.292 0 0 1-1.77-5.329l.546-7.546a45.062 45.062 0 0 1 17.125-32.166.838.838 0 0 1 1.127.081 45.056 45.056 0 0 1 12.323 34.295zM501.84 246.182c-15.76-6.061-33.452-5.184-48.534 2.419l-4.911 2.475a239.107 239.107 0 0 0-.35-51.195l5.168 5.167c4.354 4.354 10.072 6.53 15.792 6.53 5.721-.001 11.442-2.179 15.797-6.533l5.349-5.35a60.1 60.1 0 0 0 17.491-45.338 15.785 15.785 0 0 0-15.051-15.047c-16.858-.813-33.392 5.557-45.335 17.5l-5.347 5.35c-.361.361-.688.745-1.021 1.126a240.79 240.79 0 0 0-14.088-37.96l2.359-1.308a22.194 22.194 0 0 0 10.643-13.38 22.182 22.182 0 0 0-1.936-16.983l-3.667-6.617a60.091 60.091 0 0 0-38.759-29.312 15.78 15.78 0 0 0-18.611 10.318 59.983 59.983 0 0 0-1.881 31.748 7.498 7.498 0 0 0 8.892 5.782 7.5 7.5 0 0 0 5.782-8.892 44.98 44.98 0 0 1 1.407-23.807.836.836 0 0 1 .986-.547 45.071 45.071 0 0 1 29.065 21.981l3.667 6.617a7.288 7.288 0 0 1 .637 5.578 7.288 7.288 0 0 1-3.496 4.395l-13.976 7.749a7.331 7.331 0 0 1-7.579-.286 7.5 7.5 0 0 0-8.203 12.559 22.338 22.338 0 0 0 12.231 3.652c3.154 0 6.311-.678 9.261-2.026a227.869 227.869 0 0 1 6.38 15.133c-10.035-5.952-21.698-8.932-33.552-8.36a15.785 15.785 0 0 0-15.047 15.051 60.093 60.093 0 0 0 17.5 45.334l5.35 5.349c4.355 4.354 10.073 6.529 15.793 6.529 5.72 0 11.441-2.178 15.795-6.531v-.001l6.865-6.866a223.863 223.863 0 0 1 1.676 38.487c-7.947-11.487-19.735-19.964-33.343-23.727a15.786 15.786 0 0 0-19.004 9.579 60.09 60.09 0 0 0 2.419 48.533l3.404 6.756c3.924 7.783 11.809 12.281 19.981 12.281 3.376 0 6.803-.768 10.018-2.389l9.729-4.903a226.193 226.193 0 0 1-13.09 37.343c-3.941-14.433-13.18-27.004-25.944-35.023a15.784 15.784 0 0 0-20.955 3.72A59.843 59.843 0 0 0 355.26 320.7a7.5 7.5 0 0 0 6.87 8.081 7.497 7.497 0 0 0 8.081-6.87 44.871 44.871 0 0 1 9.25-23.891.84.84 0 0 1 1.112-.197 45.054 45.054 0 0 1 20.358 30.224l1.322 7.449a7.284 7.284 0 0 1-1.209 5.482 7.284 7.284 0 0 1-4.733 3.022l-15.732 2.794a7.243 7.243 0 0 1-5.92-1.554 7.48 7.48 0 0 0-5.484-2.582c-3.065-.14-5.935 1.697-7.153 4.543a7.5 7.5 0 0 0 1.648 8.313 22.423 22.423 0 0 0 15.659 6.391c1.289 0 2.585-.112 3.873-.341l7.984-1.418a224.064 224.064 0 0 1-22.627 26.384l-.221-3.048c-1.216-16.843-9.539-32.478-22.835-42.895a15.783 15.783 0 0 0-21.228 1.534 60.097 60.097 0 0 0-16.432 45.732l.546 7.544a22.186 22.186 0 0 0 7.663 15.281c4.096 3.543 9.22 5.446 14.581 5.446.458 0 .918-.022 1.378-.05a228.688 228.688 0 0 1-13.532 8.135 7.501 7.501 0 0 0 7.273 13.119 242.345 242.345 0 0 0 26.246-16.852l.975 13.497v.001a22.193 22.193 0 0 0 7.664 15.281c4.096 3.543 9.22 5.446 14.58 5.446.546 0 1.095-.02 1.645-.06l7.546-.545a60.1 60.1 0 0 0 42.894-22.836 15.78 15.78 0 0 0-1.534-21.226c-11.561-11.033-27.111-16.979-43.013-16.555a238.854 238.854 0 0 0 21.246-25.465l1.638 9.223a22.186 22.186 0 0 0 9.202 14.407c3.794 2.649 8.211 4.03 12.742 4.03a22.5 22.5 0 0 0 3.952-.35l7.448-1.322a60.097 60.097 0 0 0 40.304-27.147 15.781 15.781 0 0 0-3.721-20.954c-13.357-10.334-30.556-14.566-47.185-11.617l-4.381.778a241.124 241.124 0 0 0 17.021-44.394l2.829 5.612v-.001a22.185 22.185 0 0 0 12.951 11.16c2.3.759 4.663 1.135 7.017 1.135 3.444 0 6.867-.807 10.032-2.401l6.755-3.405a60.094 60.094 0 0 0 30.814-37.575 15.79 15.79 0 0 0-9.579-19.011zm-49.323-73.416l5.347-5.35a45.073 45.073 0 0 1 33.996-13.124.837.837 0 0 1 .799.798 45.07 45.07 0 0 1-13.117 33.999l-5.349 5.349c-2.861 2.863-7.517 2.861-10.376.002l-11.301-11.299c-2.86-2.861-2.861-7.514.001-10.375zm-25.984 10.378l-11.299 11.301c-2.861 2.861-7.517 2.86-10.376.001l-5.35-5.349a45.062 45.062 0 0 1-13.124-33.996.837.837 0 0 1 .798-.799 45.064 45.064 0 0 1 33.999 13.119l5.35 5.347c2.863 2.86 2.863 7.514.002 10.376zm-74.381 214.288a7.288 7.288 0 0 1-5.02 2.518l-15.938 1.152a7.313 7.313 0 0 1-5.329-1.77 7.293 7.293 0 0 1-2.517-5.02l-.546-7.545a45.063 45.063 0 0 1 12.322-34.295.838.838 0 0 1 1.127-.081 45.062 45.062 0 0 1 17.125 32.167l.546 7.545a7.283 7.283 0 0 1-1.77 5.329zm63.26 23.449c.314.3.35.784.081 1.126a45.062 45.062 0 0 1-32.166 17.125l-7.546.545a7.322 7.322 0 0 1-5.329-1.77 7.286 7.286 0 0 1-2.518-5.02v.001l-1.151-15.938a7.283 7.283 0 0 1 1.77-5.329 7.29 7.29 0 0 1 5.019-2.518l7.546-.545c12.631-.918 25.131 3.58 34.294 12.323zm15.591-71.834a44.818 44.818 0 0 1 7.833-.689 45.079 45.079 0 0 1 27.553 9.401.835.835 0 0 1 .197 1.111 45.053 45.053 0 0 1-30.224 20.357l-7.449 1.322a7.29 7.29 0 0 1-5.483-1.208 7.28 7.28 0 0 1-3.021-4.732v-.001l-2.794-15.734c-.708-3.982 1.958-7.799 5.94-8.506l7.448-1.321zm-5.627-81.931l-14.271 7.192c-3.61 1.82-8.031.363-9.854-3.249l-3.404-6.756a45.056 45.056 0 0 1-1.813-36.396.837.837 0 0 1 1.008-.508 45.07 45.07 0 0 1 28.178 23.108l3.405 6.755c1.821 3.613.363 8.033-3.249 9.854zm71.586-5.926a45.072 45.072 0 0 1-23.108 28.178l-6.754 3.405a7.295 7.295 0 0 1-5.601.416 7.29 7.29 0 0 1-4.254-3.665v-.001l-7.192-14.271c-1.821-3.612-.363-8.032 3.248-9.854l6.756-3.404a45.016 45.016 0 0 1 20.255-4.806c5.467 0 10.944.992 16.141 2.992a.842.842 0 0 1 .509 1.01z" fill="#121313"/><path d="M348.178 198.457a7.5 7.5 0 0 0-6.055-5.104l-54.861-7.973-24.534-49.712a7.501 7.501 0 0 0-13.452 0l-24.534 49.712-54.861 7.973a7.498 7.498 0 0 0-4.157 12.792l39.698 38.697-9.371 54.641a7.5 7.5 0 0 0 10.881 7.906l49.07-25.798 49.069 25.798a7.511 7.511 0 0 0 7.9-.571 7.499 7.499 0 0 0 2.983-7.335l-9.371-54.641 39.698-38.697a7.502 7.502 0 0 0 1.897-7.688zm-54.891 38.396a7.498 7.498 0 0 0-2.156 6.638l7.468 43.55-39.109-20.562a7.498 7.498 0 0 0-6.981 0L213.4 287.041l7.469-43.55a7.495 7.495 0 0 0-2.156-6.638l-31.64-30.842 43.726-6.354a7.5 7.5 0 0 0 5.647-4.103L256 155.932l19.554 39.622a7.498 7.498 0 0 0 5.647 4.103l43.726 6.354-31.64 30.842zm27.281-110.976a7.499 7.499 0 0 0-7.5 7.5v4.602c0 4.143 3.357 7.5 7.5 7.5s7.5-3.358 7.5-7.5v-4.602c0-4.143-3.357-7.5-7.5-7.5z" fill="#121313"/><path d="M320.568 156.26a7.499 7.499 0 0 0-7.5 7.5v4.601c0 4.143 3.357 7.5 7.5 7.5s7.5-3.358 7.5-7.5v-4.601c0-4.143-3.357-7.5-7.5-7.5zm17.493-12.891h-4.602c-4.142 0-7.5 3.357-7.5 7.5s3.358 7.5 7.5 7.5h4.602c4.142 0 7.5-3.357 7.5-7.5s-3.357-7.5-7.5-7.5zm-30.381 0h-4.603c-4.143 0-7.5 3.357-7.5 7.5s3.357 7.5 7.5 7.5h4.603c4.142 0 7.5-3.357 7.5-7.5s-3.357-7.5-7.5-7.5zm-31.043 164.789a7.499 7.499 0 0 0-7.5 7.5v4.603a7.5 7.5 0 0 0 15 0v-4.603c0-4.143-3.357-7.5-7.5-7.5zm0 30.382a7.499 7.499 0 0 0-7.5 7.5v4.602a7.5 7.5 0 0 0 15 0v-4.602c0-4.143-3.357-7.5-7.5-7.5zm17.492-12.889h-4.603a7.499 7.499 0 0 0-7.5 7.5 7.5 7.5 0 0 0 7.5 7.5h4.603a7.5 7.5 0 0 0 7.5-7.5c0-4.143-3.357-7.5-7.5-7.5zm-30.382 0h-4.603a7.5 7.5 0 0 0 0 15h4.603a7.5 7.5 0 0 0 7.5-7.5c0-4.143-3.357-7.5-7.5-7.5zm-64.855-225.19a7.499 7.499 0 0 0-7.5 7.5v4.603a7.5 7.5 0 0 0 15 0v-4.603c0-4.143-3.357-7.5-7.5-7.5zm0 30.382a7.499 7.499 0 0 0-7.5 7.5v4.603a7.5 7.5 0 0 0 15 0v-4.603c0-4.143-3.357-7.5-7.5-7.5zm17.493-12.89h-4.603c-4.143 0-7.5 3.357-7.5 7.5s3.357 7.5 7.5 7.5h4.603c4.143 0 7.5-3.357 7.5-7.5s-3.357-7.5-7.5-7.5zm-30.382 0h-4.602c-4.143 0-7.5 3.357-7.5 7.5s3.357 7.5 7.5 7.5h4.602c4.143 0 7.5-3.357 7.5-7.5s-3.357-7.5-7.5-7.5z" fill="#121313"/></svg>