<svg xmlns="http://www.w3.org/2000/svg" width="9.348" height="16" viewBox="0 0 9.348 16"><defs><style>.a{fill:#fff;}</style></defs><g transform="translate(-22 -3.5)"><path class="a" d="M29.551,19.5a1.8,1.8,0,0,0,1.8-1.8V5.3a1.8,1.8,0,0,0-1.8-1.8H23.8A1.8,1.8,0,0,0,22,5.3V17.7a1.8,1.8,0,0,0,1.8,1.8ZM23.079,5.3a.721.721,0,0,1,.719-.719h5.753a.721.721,0,0,1,.719.719V6.736H23.079Zm0,2.517H30.27v7.191H23.079Zm0,9.888V16.084H30.27V17.7a.721.721,0,0,1-.719.719H23.8A.721.721,0,0,1,23.079,17.7Z"/><path class="a" d="M43.618,11.5H42.539a.539.539,0,1,0,0,1.079h1.079a.539.539,0,0,0,0-1.079Z" transform="translate(-16.404 -6.562)"/><path class="a" d="M40.539,78.579h1.8a.539.539,0,0,0,0-1.079h-1.8a.539.539,0,1,0,0,1.079Z" transform="translate(-14.764 -60.697)"/></g></svg>