<svg xmlns="http://www.w3.org/2000/svg" width="16" height="16" viewBox="0 0 16 16"><defs><style>.a{fill:#fff;}</style></defs><g transform="translate(-0.001 0)"><path class="a" d="M10.95,14.434l-1.259.446A1.356,1.356,0,0,0,8.8,16.158v1.085a1.356,1.356,0,0,0,.891,1.278l1.259.446a.194.194,0,0,1,.116.271l-.562,1.2a1.356,1.356,0,0,0,.271,1.53l.755.755a1.356,1.356,0,0,0,1.53.271l1.2-.562a.194.194,0,0,1,.271.116l.446,1.259a1.356,1.356,0,0,0,1.278.891h1.085a1.356,1.356,0,0,0,1.278-.891l.446-1.259a.194.194,0,0,1,.271-.116l1.2.562a1.356,1.356,0,0,0,1.53-.271l.755-.755a1.356,1.356,0,0,0,.271-1.53l-.562-1.2a.194.194,0,0,1,.116-.271l1.259-.446a1.356,1.356,0,0,0,.891-1.278V16.158a1.356,1.356,0,0,0-.891-1.278l-1.259-.446a.194.194,0,0,1-.116-.271l.562-1.2a1.356,1.356,0,0,0-.271-1.53l-.755-.755a1.356,1.356,0,0,0-1.53-.271l-1.2.562a.194.194,0,0,1-.271-.116l-.446-1.259A1.356,1.356,0,0,0,17.342,8.7h-1.1a1.356,1.356,0,0,0-1.278.891l-.446,1.259a.194.194,0,0,1-.271.116l-1.2-.562a1.356,1.356,0,0,0-1.53.271l-.755.755a1.356,1.356,0,0,0-.271,1.53l.562,1.2a.194.194,0,0,1-.116.271Zm.387,1.085a1.356,1.356,0,0,0,.775-1.86l-.562-1.2a.194.194,0,0,1,.039-.213l.736-.755a.194.194,0,0,1,.213-.039l1.2.562a1.356,1.356,0,0,0,1.86-.775l.446-1.259a.194.194,0,0,1,.174-.136H17.3a.194.194,0,0,1,.174.136l.465,1.278a1.356,1.356,0,0,0,1.86.775L21,11.47a.194.194,0,0,1,.213.039l.775.736a.194.194,0,0,1,.039.213l-.562,1.2a1.356,1.356,0,0,0,.775,1.86l1.259.446a.194.194,0,0,1,.136.174v1.085a.194.194,0,0,1-.136.174l-1.278.465a1.356,1.356,0,0,0-.775,1.86l.562,1.2a.194.194,0,0,1-.039.213l-.736.775a.194.194,0,0,1-.213.039l-1.2-.562a1.356,1.356,0,0,0-1.86.775l-.446,1.259a.194.194,0,0,1-.174.136h-1.1a.194.194,0,0,1-.174-.136l-.446-1.278a1.356,1.356,0,0,0-1.86-.775l-1.2.562a.194.194,0,0,1-.213-.039l-.775-.736a.194.194,0,0,1-.039-.213l.562-1.2a1.356,1.356,0,0,0-.775-1.86l-1.259-.446a.194.194,0,0,1-.136-.174v-1.1a.194.194,0,0,1,.136-.174Z" transform="translate(-8.8 -8.7)"/><path class="a" d="M38.067,40.934A2.867,2.867,0,1,0,35.2,38.067,2.867,2.867,0,0,0,38.067,40.934Zm0-4.591a1.7,1.7,0,1,1-1.7,1.724,1.724,1.724,0,0,1,1.7-1.7Z" transform="translate(-30.086 -30.067)"/></g></svg>