<svg xmlns="http://www.w3.org/2000/svg" width="20" height="17.064" viewBox="0 0 20 17.064"><defs><style>.a{fill:#fff;}</style></defs><g transform="translate(-3.28 -10.14)"><path class="a" d="M23.083,11.107a.856.856,0,0,0-.659-.308h-7.1a.856.856,0,1,0,0,1.712h6.068L20.23,18.8a1.5,1.5,0,0,1-1.473,1.224H11.073A1.5,1.5,0,0,1,9.6,18.781l-1.111-6.34a2.783,2.783,0,0,0-2.742-2.3H4.136a.856.856,0,1,0,0,1.712h1.61a1.07,1.07,0,0,1,1.053.886l1.113,6.34a3.211,3.211,0,0,0,3.161,2.656h7.682A3.211,3.211,0,0,0,21.912,19.1l1.355-7.3A.856.856,0,0,0,23.083,11.107Z"/><path class="a" d="M31.824,71.987a2.434,2.434,0,1,0-2.434-2.432A2.434,2.434,0,0,0,31.824,71.987Zm0-3.155a.721.721,0,1,1-.721.721.73.73,0,0,1,.721-.719Z" transform="translate(-20.521 -44.784)"/><path class="a" d="M68.947,69.556a2.434,2.434,0,1,0-2.434,2.432A2.434,2.434,0,0,0,68.947,69.556Zm-3.155,0a.721.721,0,1,1,.721.721A.73.73,0,0,1,65.792,69.556Z" transform="translate(-47.786 -44.784)"/></g></svg>