<svg xmlns="http://www.w3.org/2000/svg" width="14.291" height="16" viewBox="0 0 14.291 16"><defs><style>.a{fill:#fff;}</style></defs><g transform="translate(-5.34)"><path class="a" d="M12.485,30.11a7.323,7.323,0,0,1-4.32-13.1.994.994,0,0,1,1.411.2,1.042,1.042,0,0,1-.194,1.44,5.26,5.26,0,0,0,3.1,9.41,5.258,5.258,0,0,0,3.1-9.41,1.042,1.042,0,0,1-.194-1.44.994.994,0,0,1,1.416-.2,7.323,7.323,0,0,1-4.32,13.1Z" transform="translate(0 -14.11)"/><path class="a" d="M44.71,9.424A1.056,1.056,0,0,1,43.7,8.32V1.1a1.01,1.01,0,1,1,2.013,0V8.32A1.056,1.056,0,0,1,44.71,9.424Z" transform="translate(-32.225)"/></g></svg>