<svg xmlns="http://www.w3.org/2000/svg" width="20" height="19.213" viewBox="0 0 20 19.213"><defs><style>.a{fill:#fff;fill-rule:evenodd;}</style></defs><path class="a" d="M31.08,43.392a32.058,32.058,0,0,1,.759,3.38c.171,1.053.294,2.376-.71,3.086-.98.71-2.2.22-3.159-.269-1-.514-2.008-1.151-2.988-1.763-.955.612-1.959,1.249-2.963,1.763-.98.49-2.18.98-3.159.269-1-.71-.906-2.033-.735-3.086.2-1.127.49-2.278.759-3.38-.882-.735-1.763-1.494-2.571-2.3-.759-.735-1.616-1.739-1.224-2.914.367-1.151,1.641-1.469,2.694-1.616,1.127-.171,2.3-.269,3.453-.343.416-1.053.857-2.155,1.371-3.159C23.1,32.1,23.758,31,24.982,31s1.91,1.1,2.4,2.057c.514,1,.955,2.106,1.371,3.159,1.151.073,2.327.171,3.429.343,1.078.147,2.327.465,2.718,1.616.367,1.176-.465,2.18-1.224,2.914C32.868,41.9,31.962,42.657,31.08,43.392Zm-3.306-5.829c7.42.539,7.42.514,1.714,5.314,1.812,7.249,1.837,7.224-4.506,3.257-6.343,3.967-6.294,3.992-4.506-3.257-5.682-4.8-5.682-4.776,1.739-5.314C25.007,30.706,24.982,30.706,27.774,37.563Z" transform="translate(-14.99 -31)"/></svg>