<svg xmlns="http://www.w3.org/2000/svg" width="69.875" height="81.001" viewBox="0 0 69.875 81.001"><defs><style>.a{fill:#121313;stroke:#121313;}</style></defs><path class="a" d="M47.41,7a7.345,7.345,0,0,0-6.888,4.97,7.246,7.246,0,0,0-11.916,6.917A7.246,7.246,0,0,0,21.689,30.8a7.258,7.258,0,0,0,0,13.776,7.356,7.356,0,0,0-.872,8.457,7.079,7.079,0,0,0,3.371,2.994L13.116,75.356a.93.93,0,0,0,.872,1.4l12.352-.872L30.728,86.4a.93.93,0,0,0,1.686.116L43.486,67.189a7.055,7.055,0,0,0,7.847,0L62.406,86.516a.93.93,0,0,0,1.686-.116L68.48,75.879l12.352.872a.93.93,0,0,0,.872-1.4L73.131,60.447a.918.918,0,1,0-1.6.9L79.2,74.775l-11.276-.814a.93.93,0,0,0-.93.552L63.075,83.93,52.757,65.94a7.645,7.645,0,0,0,1.54-2.528,7.246,7.246,0,0,0,11.916-6.917,7.246,7.246,0,0,0,6.917-11.916,7.258,7.258,0,0,0,0-13.776,7.246,7.246,0,0,0-6.917-11.916A7.246,7.246,0,0,0,54.3,11.97,7.346,7.346,0,0,0,47.41,7Zm0,1.86a5.54,5.54,0,0,1,5.522,4.854.93.93,0,0,0,1.657.436,5.6,5.6,0,0,1,9.591,5.58.93.93,0,0,0,1.192,1.192,5.6,5.6,0,0,1,5.58,9.591.93.93,0,0,0,.436,1.657,5.568,5.568,0,0,1,0,11.044.93.93,0,0,0-.436,1.657,5.6,5.6,0,0,1-5.58,9.591.93.93,0,0,0-1.192,1.192,5.6,5.6,0,0,1-9.591,5.58.93.93,0,0,0-1.657.436,5.568,5.568,0,0,1-11.044,0,.93.93,0,0,0-1.657-.436,5.6,5.6,0,0,1-9.591-5.58.93.93,0,0,0-1.192-1.192,5.6,5.6,0,0,1-5.58-9.591.93.93,0,0,0-.436-1.657,5.568,5.568,0,0,1,0-11.044.93.93,0,0,0,.436-1.657,5.6,5.6,0,0,1,5.58-9.591.93.93,0,0,0,1.192-1.192,5.6,5.6,0,0,1,9.591-5.58.93.93,0,0,0,1.657-.436A5.54,5.54,0,0,1,47.41,8.86Zm0,9.3A19.53,19.53,0,1,0,66.94,37.69,19.544,19.544,0,0,0,47.41,18.16Zm0,1.86A17.67,17.67,0,1,1,29.74,37.69,17.656,17.656,0,0,1,47.41,20.02Zm7.382,11.131a.93.93,0,0,0-.639.32L44.5,41.992l-3.953-3.168a.93.93,0,0,0-1.163,1.453L44.038,44a.93.93,0,0,0,1.279-.116l10.23-11.16a.93.93,0,0,0-.756-1.569ZM28.606,56.494a7.246,7.246,0,0,0,11.916,6.917,7.644,7.644,0,0,0,1.54,2.528L31.745,83.93l-3.924-9.416a.93.93,0,0,0-.93-.552l-11.276.814L26.078,56.523A7.854,7.854,0,0,0,28.606,56.494Z" transform="translate(-12.473 -6.5)"/></svg>