<?xml version="1.0"?>
<svg xmlns="http://www.w3.org/2000/svg" height="512px" viewBox="0 -73 512.00114 512" width="512px"><path d="m177.5 303.6875c-2.222656-1.902344-4.378906-3.855469-6.472656-5.863281-29.746094-28.488281-46.511719-67.453125-46.511719-109.277344 0-24.269531 5.726563-47.875 16.667969-69.167969 2.617187-5.089844 5.523437-10.050781 8.726562-14.855468 1.464844-2.195313 2.28125-4.632813 2.492188-7.089844.171875-1.9375 3.402344-42.128906-20.453125-68.996094-23.933594-26.925781-64.410157-28.3828125-66.121094-28.4296875-8.03125-.2226565-14.820313 5.8164065-15.542969 13.8007815-.152344 1.707031-3.488281 42.082031 20.453125 69.027344 12.296875 13.835937 28.957031 20.9375 42.484375 24.585937-3.179687 6.378906-5.976562 12.925781-8.375 19.605469-4.726562-6.152344-10.496094-11.964844-17.554687-16.667969-29.984375-19.980469-69.511719-11.109375-71.179688-10.722656-7.808593 1.8125-12.859375 9.390625-11.527343 17.296875.285156 1.6875 7.308593 41.570312 37.296874 61.566406 15.707032 10.46875 34.03125 13.015625 48.15625 13.015625 1.441407 0 2.832032-.027344 4.175782-.074219.09375 6.0625.464844 12.074219 1.140625 18.015625-6.023438-2.996093-12.632813-5.375-19.78125-6.632812-35.503907-6.238281-68.121094 17.789062-69.492188 18.816406-6.417969 4.800781-7.992187 13.769531-3.59375 20.46875.941407 1.433594 23.417969 35.121094 58.910157 41.367187 4.0625.710938 8.085937 1.027344 12.035156 1.027344 16.390625 0 31.390625-5.460937 41.960937-10.660156 1.726563 3.25 3.550781 6.449219 5.476563 9.585938-.816406.019531-1.632813.035156-2.453125.085937-35.980469 2.171875-62.121094 33.121094-63.214844 34.4375-5.125 6.160156-4.574219 15.246094 1.261719 20.742187 1.199218 1.128907 28.710937 26.667969 62.824218 26.667969 1.347657 0 2.714844-.039062 4.082032-.125 35.972656-2.183593 62.113281-33.117187 63.207031-34.429687 5.128906-6.164063 4.578125-15.25-1.257813-20.75-.363281-.335938-3.164062-2.933594-7.820312-6.371094zm-86.816406 22.527344c7.601562-5.753906 18.097656-11.71875 29.566406-12.414063 11.492188-.699219 22.621094 3.949219 30.847656 8.742188-7.597656 5.753906-18.097656 11.71875-29.5625 12.417969-11.496094.699218-22.617187-3.949219-30.851562-8.746094zm-20.359375-93.503906c11.332031 1.988281 21.082031 9.097656 27.96875 15.667968-8.726563 3.835938-20.332031 7.203125-31.644531 5.21875-11.335938-1.996094-21.085938-9.105468-27.980469-15.683594 8.726562-3.835937 20.320312-7.199218 31.65625-5.203124zm-30.921875-105.054688c9.53125 0 21.507812 1.585938 31.0625 7.953125 9.578125 6.382813 15.644531 16.8125 19.308594 25.601563-9.53125 0-21.503907-1.582032-31.0625-7.953126-9.574219-6.382812-15.640626-16.808593-19.308594-25.601562zm54.015625-64.96875c-7.648438-8.609375-10.867188-20.242188-12.179688-29.679688 9.21875 2.414063 20.386719 6.980469 28.03125 15.582032 7.644531 8.605468 10.863281 20.238281 12.179688 29.671875-9.222657-2.421875-20.402344-6.992188-28.03125-15.574219zm0 0" fill="#121313"/><path d="m505.917969 221.640625c-1.371094-1.023437-33.992188-25.054687-69.488281-18.8125-7.148438 1.253906-13.757813 3.636719-19.78125 6.632813.671874-5.945313 1.042968-11.953126 1.136718-18.019532 1.34375.046875 2.734375.078125 4.171875.078125 14.128907 0 32.457031-2.550781 48.164063-13.019531 29.984375-19.992188 37.011718-59.875 37.292968-61.5625 1.332032-7.90625-3.714843-15.484375-11.523437-17.296875-1.671875-.386719-41.195313-9.257813-71.183594 10.722656-7.058593 4.703125-12.828125 10.515625-17.550781 16.667969-2.863281-7.976562-6.292969-15.753906-10.269531-23.285156 12.742187-.910156 30.464843-5.253906 44.378906-20.910156 23.941406-26.945313 20.601563-67.320313 20.449219-69.027344-.71875-7.984375-7.546875-14.003906-15.539063-13.8007815-1.710937.046875-42.1875 1.5039065-66.128906 28.4374995-23.847656 26.859376-20.621094 67.050782-20.449219 68.988282.214844 2.457031 1.03125 4.894531 2.496094 7.089844 3.203125 4.804687 6.109375 9.765624 8.722656 14.855468 10.941406 21.292969 16.671875 44.898438 16.671875 69.167969 0 41.824219-16.765625 80.789063-46.511719 109.277344-2.101562 2.011719-4.265624 3.972656-6.496093 5.878906-4.644531 3.433594-7.4375 6.019531-7.800781 6.359375-5.832032 5.496094-6.382813 14.585938-1.253907 20.746094 1.09375 1.316406 27.234375 32.25 63.203125 34.433594 1.371094.082031 2.730469.125 4.082032.125 34.113281 0 61.628906-25.539063 62.828124-26.667969 5.835938-5.496094 6.386719-14.582031 1.261719-20.742188-1.097656-1.316406-27.234375-32.265625-63.210937-34.4375-.824219-.046875-1.640625-.066406-2.457032-.085937 1.925782-3.140625 3.75-6.339844 5.476563-9.585938 10.570313 5.199219 25.570313 10.660156 41.964844 10.660156 3.945312 0 7.976562-.316406 12.039062-1.03125 35.484375-6.242187 57.960938-39.933593 58.898438-41.363281 4.398437-6.703125 2.824219-15.667969-3.59375-20.472656zm-114.160157 92.160156c11.488282.695313 21.976563 6.652344 29.566407 12.410157-8.230469 4.796874-19.359375 9.449218-30.855469 8.746093-11.492188-.695312-21.984375-6.65625-29.574219-12.410156 8.234375-4.792969 19.363281-9.4375 30.863281-8.746094zm-53.964843 6.742188c-.238281.1875-.46875.378906-.710938.5625l.484375-2.902344c.195313.660156.257813 1.453125.226563 2.339844zm92.960937-287.535157c-1.316406 9.445313-4.539062 21.085938-12.167968 29.675782-7.644532 8.601562-18.8125 13.167968-28.023438 15.585937 1.320312-9.441406 4.539062-21.085937 12.164062-29.675781 7.644532-8.597656 18.808594-13.167969 28.027344-15.585938zm10.777344 102.601563c9.570312-6.378906 21.523438-7.964844 31.046875-7.964844h.027344c-3.667969 8.796875-9.734375 19.226563-19.3125 25.609375-9.578125 6.382813-21.535157 7.96875-31.054688 7.96875-.003906 0-.007812 0-.011719 0 3.664063-8.796875 9.726563-19.226562 19.304688-25.613281zm-27.820312 112.785156c6.898437-6.582031 16.65625-13.699219 27.96875-15.6875 11.332031-1.992187 22.921874 1.367188 31.644531 5.203125-6.898438 6.574219-16.652344 13.695313-27.960938 15.683594-11.339843 1.988281-22.933593-1.371094-31.652343-5.199219zm0 0" fill="#121313"/><path d="m339.550781 175.519531c3.050781-3.964843 3.953125-9.179687 2.40625-13.941406s-5.34375-8.449219-10.144531-9.863281l-39.832031-11.726563-23.460938-34.261719c-2.828125-4.128906-7.511719-6.597656-12.519531-6.597656-5.003906 0-9.6875 2.46875-12.515625 6.597656l-23.460937 34.261719-39.832032 11.726563c-4.804687 1.414062-8.597656 5.101562-10.144531 9.863281s-.644531 9.976563 2.40625 13.941406l25.335937 32.902344-1.15625 41.507813c-.140624 5.003906 2.195313 9.753906 6.246094 12.695312 4.046875 2.941406 9.289063 3.699219 14.003906 2.019531l39.117188-13.929687 39.121094 13.929687c1.65625.589844 3.375.878907 5.085937.878907 3.160157 0 6.289063-.988282 8.917969-2.898438 4.050781-2.941406 6.386719-7.691406 6.246094-12.695312l-1.15625-41.507813zm-111.976562 53.113281.691406-24.765624c.097656-3.492188-1.011719-6.910157-3.144531-9.675782l-15.113282-19.628906 23.765626-6.996094c3.347656-.984375 6.257812-3.097656 8.230468-5.980468l13.996094-20.4375 14 20.4375c1.972656 2.882812 4.878906 4.996093 8.230469 5.980468l23.765625 6.996094-15.113282 19.628906c-2.132812 2.765625-3.242187 6.183594-3.144531 9.675782l.691407 24.765624-23.339844-8.308593c-1.644532-.585938-3.367188-.878907-5.085938-.878907-1.722656 0-3.445312.292969-5.089844.878907zm0 0" fill="#121313"/></svg>
