<?xml version="1.0" encoding="iso-8859-1"?>
<!-- Generator: Adobe Illustrator 19.0.0, SVG Export Plug-In . SVG Version: 6.00 Build 0)  -->
<svg xmlns="http://www.w3.org/2000/svg" xmlns:xlink="http://www.w3.org/1999/xlink" version="1.1" id="Capa_1" x="0px" y="0px" viewBox="0 0 511.999 511.999" style="enable-background:new 0 0 511.999 511.999;" xml:space="preserve" width="512px" height="512px">
<g>
	<g>
		<path d="M187.727,342.117c-5.654-5.924-14.78-6.585-21.228-1.534c-13.297,10.417-21.619,26.051-22.835,42.894l-0.221,3.049    c-8.271-8.259-15.832-17.081-22.627-26.384l7.984,1.418c1.319,0.234,2.641,0.35,3.953,0.35c4.531,0,8.949-1.381,12.743-4.031    c4.891-3.416,8.159-8.533,9.202-14.407l1.322-7.448c2.951-16.629-1.282-33.827-11.616-47.185    c-5.013-6.477-14.021-8.076-20.955-3.72c-12.764,8.02-22.002,20.59-25.943,35.023c-5.451-12.047-9.826-24.546-13.09-37.343    l9.729,4.903c3.231,1.629,6.67,2.404,10.057,2.404c7.829-0.001,15.383-4.142,19.469-11.446c2.022-3.615,0.732-8.185-2.883-10.207    c-3.618-2.023-8.185-0.731-10.207,2.883c-1.923,3.436-6.177,4.739-9.685,2.972l-14.271-7.192c-3.612-1.821-5.07-6.241-3.25-9.854    l3.405-6.755c5.701-11.311,15.971-19.732,28.177-23.108c0.424-0.114,0.853,0.104,1.009,0.509    c2.211,5.744,3.204,11.792,2.953,17.974c-0.168,4.139,3.052,7.63,7.19,7.798c4.121,0.165,7.63-3.053,7.798-7.19    c0.334-8.239-0.992-16.303-3.941-23.967c-2.94-7.644-11.106-11.764-19.005-9.58c-13.607,3.763-25.395,12.241-33.342,23.727    c-0.544-12.768,0.012-25.639,1.686-38.477l6.855,6.856v0.001c4.355,4.355,10.075,6.531,15.795,6.531    c5.719,0,11.439-2.176,15.793-6.529l5.35-5.349c11.944-11.941,18.322-28.465,17.5-45.334c-0.398-8.18-6.868-14.65-15.048-15.051    c-11.832-0.568-23.487,2.404-33.518,8.342c1.927-5.076,4.026-10.121,6.348-15.116c2.975,1.359,6.119,2.017,9.229,2.017    c7.862,0,15.5-4.153,19.574-11.504l3.667-6.614c8.189-14.771,9.766-32.413,4.325-48.402c-2.639-7.753-10.638-12.186-18.613-10.317    c-16.442,3.857-30.568,14.541-38.758,29.312l-3.667,6.615c-2.893,5.218-3.581,11.25-1.937,16.984    c1.645,5.735,5.424,10.487,10.642,13.381l2.36,1.308c-5.84,12.431-10.522,25.124-14.087,37.959    c-0.333-0.38-0.66-0.765-1.021-1.126l-5.349-5.35c-11.942-11.944-28.478-18.328-45.334-17.5    c-8.18,0.398-14.649,6.867-15.051,15.048c-0.824,16.868,5.552,33.393,17.491,45.337l5.349,5.351    c4.355,4.354,10.076,6.532,15.795,6.532c5.72,0,11.439-2.177,15.793-6.53l5.168-5.167c-1.967,17.126-2.05,34.288-0.35,51.196    l-4.91-2.475c-15.083-7.602-32.772-8.482-48.534-2.419c-7.643,2.941-11.762,11.111-9.579,19.005    c4.502,16.277,15.733,29.973,30.813,37.574l6.756,3.405c3.165,1.596,6.586,2.401,10.03,2.401c2.354,0,4.719-0.376,7.018-1.135    c5.667-1.868,10.267-5.832,12.951-11.159l2.829-5.612c4.195,15.301,9.889,30.178,17.021,44.394l-4.381-0.778    c-16.627-2.953-33.827,1.284-47.185,11.616c-6.479,5.012-8.078,14.022-3.721,20.954c8.984,14.302,23.674,24.196,40.304,27.148    l7.447,1.322c1.319,0.234,2.641,0.35,3.953,0.35c4.531,0,8.949-1.381,12.742-4.03c4.892-3.416,8.159-8.533,9.202-14.407    l1.638-9.223c6.444,8.917,13.536,17.428,21.246,25.465c-15.904-0.422-31.452,5.523-43.013,16.555    c-5.926,5.655-6.585,14.781-1.534,21.226c10.416,13.296,26.049,21.618,42.895,22.836l7.544,0.545    c0.551,0.04,1.099,0.06,1.645,0.06c5.361,0,10.486-1.903,14.581-5.446c4.512-3.903,7.233-9.331,7.664-15.281v-0.001L160,420.474    c8.277,6.097,17.025,11.741,26.246,16.852c1.152,0.639,2.399,0.941,3.63,0.941c2.638,0,5.196-1.395,6.566-3.864    c2.008-3.623,0.699-8.188-2.923-10.196c-4.639-2.572-9.146-5.29-13.532-8.135c0.461,0.028,0.921,0.05,1.378,0.05    c5.361,0,10.486-1.903,14.581-5.446c4.512-3.904,7.233-9.331,7.663-15.281l0.546-7.545    C205.375,371.004,199.386,354.336,187.727,342.117z M87.255,100.926l3.667-6.615c6.142-11.078,16.734-19.089,29.066-21.981    c0.415-0.101,0.847,0.135,0.986,0.547c4.08,11.99,2.898,25.22-3.244,36.298l-3.667,6.614c-1.961,3.539-6.436,4.823-9.975,2.86    l-13.976-7.748c-1.714-0.95-2.956-2.511-3.496-4.396C86.078,104.622,86.305,102.641,87.255,100.926z M85.469,172.769l5.35-5.349    c8.957-8.954,21.36-13.752,33.998-13.118c0.435,0.021,0.777,0.364,0.799,0.799c0.616,12.65-4.167,25.041-13.124,33.996    l-5.35,5.348c-2.859,2.861-7.515,2.859-10.376,0l-11.299-11.301C82.608,180.283,82.608,175.628,85.469,172.769z M59.485,183.141    L48.184,194.44c-2.861,2.859-7.515,2.86-10.376-0.001l-5.349-5.35c-8.954-8.957-13.735-21.349-13.117-33.998    c0.021-0.435,0.364-0.777,0.799-0.799c0.728-0.035,1.452-0.053,2.177-0.053c11.885,0,23.379,4.734,31.818,13.177l5.349,5.35    C62.345,175.627,62.345,180.28,59.485,183.141z M61.949,275.252l-7.192,14.271v0.001c-0.882,1.75-2.393,3.051-4.254,3.665    c-1.86,0.613-3.85,0.466-5.6-0.416l-6.755-3.405c-11.309-5.701-19.732-15.971-23.108-28.177c-0.115-0.419,0.103-0.853,0.509-1.009    c5.197-2,10.674-2.992,16.141-2.992c6.967,0,13.919,1.611,20.256,4.806l6.754,3.404C62.312,267.221,63.769,271.641,61.949,275.252    z M94.387,358.875l-2.794,15.734c0,0.001,0,0.001,0,0.001c-0.342,1.93-1.415,3.61-3.021,4.732    c-1.607,1.121-3.553,1.551-5.484,1.208l-7.448-1.322c-12.471-2.213-23.486-9.634-30.224-20.358    c-0.231-0.367-0.146-0.845,0.197-1.111c7.928-6.133,17.656-9.4,27.553-9.4c2.609,0,5.231,0.227,7.833,0.689l7.447,1.322    C92.429,351.076,95.095,354.893,94.387,358.875z M110.956,340.974c-1.122-1.607-1.552-3.554-1.209-5.483l1.322-7.447    c2.214-12.472,9.635-23.487,20.358-30.225c0.365-0.232,0.846-0.147,1.112,0.197c7.749,10.018,10.924,22.914,8.71,35.385    l-1.322,7.447c-0.343,1.931-1.416,3.611-3.022,4.733c-1.607,1.121-3.556,1.55-5.483,1.209l-15.735-2.794    C113.759,343.654,112.078,342.58,110.956,340.974z M145.217,416.951l-1.151,15.937c-0.142,1.955-1.035,3.737-2.518,5.02    c-1.481,1.282-3.377,1.903-5.33,1.77l-7.544-0.545c-12.633-0.913-24.356-7.155-32.167-17.125    c-0.269-0.342-0.233-0.826,0.081-1.126c8.383-7.999,19.556-12.439,31.07-12.439c1.072,0,2.149,0.038,3.226,0.116l7.544,0.545    c1.955,0.142,3.737,1.035,5.02,2.518C144.73,413.104,145.359,414.996,145.217,416.951z M189.197,386.768l-0.546,7.546    c-0.142,1.954-1.035,3.736-2.517,5.018c-1.481,1.283-3.377,1.904-5.329,1.77h-0.001l-15.938-1.151    c-1.955-0.142-3.738-1.035-5.02-2.518c-1.282-1.482-1.911-3.375-1.77-5.329l0.546-7.546c0.912-12.631,7.154-24.354,17.125-32.166    c0.154-0.121,0.337-0.18,0.52-0.18c0.222,0,0.442,0.088,0.607,0.261C185.619,361.636,190.111,374.136,189.197,386.768z" fill="#121313"/>
	</g>
</g>
<g>
	<g>
		<path d="M501.84,246.182c-15.76-6.061-33.452-5.184-48.534,2.419l-4.911,2.475c1.699-16.909,1.617-34.069-0.35-51.195l5.168,5.167    c4.354,4.354,10.072,6.53,15.792,6.53c5.721-0.001,11.442-2.179,15.797-6.533l5.349-5.35    c11.94-11.944,18.315-28.468,17.491-45.338c-0.401-8.18-6.871-14.648-15.051-15.047c-16.858-0.813-33.392,5.557-45.335,17.5    l-5.347,5.35c-0.361,0.361-0.688,0.745-1.021,1.126c-3.565-12.835-8.248-25.529-14.088-37.96l2.359-1.308    c5.219-2.893,8.998-7.645,10.643-13.38c1.645-5.735,0.956-11.768-1.936-16.983l-3.667-6.617    c-8.189-14.771-22.315-25.454-38.759-29.312c-7.976-1.869-15.977,2.566-18.611,10.318c-3.471,10.197-4.121,21.175-1.881,31.748    c0.857,4.053,4.837,6.64,8.892,5.782c4.052-0.858,6.641-4.839,5.782-8.892c-1.681-7.933-1.194-16.164,1.407-23.807    c0.14-0.411,0.569-0.649,0.986-0.547c12.331,2.894,22.924,10.906,29.065,21.981l3.667,6.617c0.95,1.714,1.177,3.695,0.637,5.578    c-0.54,1.884-1.781,3.444-3.496,4.395l-13.976,7.749c-2.385,1.321-5.288,1.21-7.579-0.286c-3.467-2.264-8.116-1.291-10.381,2.178    c-2.265,3.468-1.29,8.115,2.178,10.381c3.718,2.429,7.97,3.652,12.231,3.652c3.154,0,6.311-0.678,9.261-2.026    c2.325,5.003,4.45,10.051,6.38,15.133c-10.035-5.952-21.698-8.932-33.552-8.36c-8.179,0.4-14.648,6.871-15.047,15.051    c-0.822,16.868,5.557,33.393,17.5,45.334l5.35,5.349c4.355,4.354,10.073,6.529,15.793,6.529c5.72,0,11.441-2.178,15.795-6.531    v-0.001l6.865-6.866c1.675,12.842,2.22,25.715,1.676,38.487c-7.947-11.487-19.735-19.964-33.343-23.727    c-7.891-2.18-16.063,1.935-19.004,9.579c-6.064,15.764-5.183,33.452,2.419,48.533l3.404,6.756    c3.924,7.783,11.809,12.281,19.981,12.281c3.376,0,6.803-0.768,10.018-2.389l9.729-4.903c-3.264,12.797-7.639,25.296-13.09,37.343    c-3.941-14.433-13.18-27.004-25.944-35.023c-6.933-4.357-15.941-2.758-20.955,3.72c-7.128,9.216-11.395,20.231-12.337,31.858    c-0.335,4.128,2.741,7.746,6.87,8.081c4.13,0.337,7.746-2.741,8.081-6.87c0.707-8.721,3.905-16.982,9.25-23.891    c0.267-0.343,0.748-0.428,1.112-0.197c10.725,6.737,18.145,17.753,20.358,30.224l1.322,7.449c0.343,1.929-0.087,3.876-1.209,5.482    c-1.122,1.606-2.803,2.681-4.733,3.022l-15.732,2.794c-2.136,0.377-4.256-0.185-5.92-1.554c-1.297-1.492-3.173-2.466-5.278-2.572    c-0.071-0.005-0.144-0.008-0.206-0.01c-3.065-0.14-5.935,1.697-7.153,4.543c-1.219,2.846-0.564,6.147,1.648,8.313    c4.216,4.126,9.868,6.391,15.659,6.391c1.289,0,2.585-0.112,3.873-0.341l7.984-1.418c-6.796,9.304-14.356,18.125-22.627,26.384    l-0.221-3.048c-1.216-16.843-9.539-32.478-22.835-42.895c-6.448-5.051-15.573-4.392-21.228,1.534    c-11.66,12.219-17.648,28.887-16.432,45.732l0.546,7.544c0.43,5.951,3.151,11.378,7.663,15.281    c4.096,3.543,9.22,5.446,14.581,5.446c0.458,0,0.918-0.022,1.378-0.05c-4.386,2.844-8.893,5.563-13.532,8.135    c-3.622,2.009-4.931,6.573-2.923,10.196c1.37,2.471,3.929,3.864,6.566,3.864c1.23,0,2.478-0.303,3.63-0.941    c9.222-5.112,17.969-10.755,26.246-16.852l0.975,13.497v0.001c0.431,5.95,3.152,11.378,7.664,15.281    c4.096,3.543,9.22,5.446,14.58,5.446c0.546,0,1.095-0.02,1.645-0.06l7.546-0.545c16.844-1.218,32.477-9.541,42.894-22.836    c5.051-6.446,4.392-15.572-1.534-21.226c-11.561-11.033-27.111-16.979-43.013-16.555c7.711-8.037,14.803-16.549,21.246-25.465    l1.638,9.223c1.043,5.874,4.31,10.991,9.202,14.407c3.794,2.649,8.211,4.03,12.742,4.03c1.313,0,2.634-0.115,3.952-0.35    l7.448-1.322c16.629-2.952,31.319-12.848,40.304-27.147c4.357-6.935,2.758-15.944-3.721-20.954    c-13.357-10.334-30.556-14.566-47.185-11.617l-4.381,0.778c7.133-14.216,12.827-29.093,17.021-44.394l2.829,5.612v-0.001    c2.685,5.328,7.284,9.292,12.951,11.16c2.3,0.759,4.663,1.135,7.017,1.135c3.444,0,6.867-0.807,10.032-2.401l6.755-3.405    c15.081-7.602,26.312-21.296,30.814-37.575C513.601,257.293,509.483,249.123,501.84,246.182z M452.517,172.766l5.347-5.35    c8.441-8.442,19.934-13.177,31.819-13.177c0.724,0,1.45,0.018,2.177,0.053c0.435,0.021,0.777,0.364,0.799,0.798    c0.618,12.65-4.163,25.042-13.117,33.999l-5.349,5.349c-2.861,2.863-7.517,2.861-10.376,0.002l-11.301-11.299    C449.656,180.28,449.655,175.627,452.517,172.766z M426.533,183.144l-11.299,11.301c-2.861,2.861-7.517,2.86-10.376,0.001    l-5.35-5.349c-8.957-8.955-13.74-21.346-13.124-33.996c0.021-0.435,0.364-0.777,0.798-0.799c0.729-0.036,1.457-0.054,2.184-0.054    c11.884,0,23.375,4.732,31.815,13.173l5.35,5.347C429.394,175.628,429.394,180.282,426.533,183.144z M352.152,397.432    c-1.282,1.483-3.065,2.376-5.02,2.518l-15.938,1.152c-1.95,0.135-3.848-0.486-5.329-1.77c-1.481-1.282-2.375-3.064-2.517-5.02    l-0.546-7.545c-0.913-12.632,3.578-25.132,12.322-34.295c0.165-0.173,0.386-0.261,0.608-0.261c0.182,0,0.364,0.059,0.519,0.18    c9.971,7.812,16.213,19.535,17.125,32.167l0.546,7.545C354.064,394.057,353.435,395.95,352.152,397.432z M415.412,420.881    c0.314,0.3,0.35,0.784,0.081,1.126c-7.811,9.971-19.534,16.212-32.166,17.125l-7.546,0.545c-1.95,0.134-3.848-0.487-5.329-1.77    c-1.483-1.282-2.376-3.064-2.518-5.02v0.001l-1.151-15.938c-0.142-1.954,0.487-3.847,1.77-5.329    c1.282-1.482,3.064-2.376,5.019-2.518l7.546-0.545C393.749,407.64,406.249,412.138,415.412,420.881z M431.003,349.047    c2.603-0.462,5.224-0.689,7.833-0.689c9.895,0,19.625,3.268,27.553,9.401c0.344,0.266,0.429,0.743,0.197,1.111    c-6.737,10.725-17.753,18.144-30.224,20.357l-7.449,1.322c-1.928,0.343-3.877-0.087-5.483-1.208    c-1.607-1.122-2.68-2.803-3.021-4.732c0,0,0,0,0-0.001l-2.794-15.734c-0.708-3.982,1.958-7.799,5.94-8.506L431.003,349.047z     M425.376,267.116l-14.271,7.192c-3.61,1.82-8.031,0.363-9.854-3.249l-3.404-6.756c-5.701-11.31-6.362-24.574-1.813-36.396    c0.128-0.332,0.442-0.538,0.782-0.538c0.074,0,0.15,0.01,0.226,0.03c12.207,3.376,22.477,11.799,28.178,23.108l3.405,6.755    C430.446,260.875,428.988,265.295,425.376,267.116z M496.962,261.19c-3.376,12.207-11.8,22.477-23.108,28.178l-6.754,3.405    c-1.75,0.881-3.739,1.03-5.601,0.416c-1.861-0.614-3.372-1.915-4.254-3.665v-0.001l-7.192-14.271    c-1.821-3.612-0.363-8.032,3.248-9.854l6.756-3.404c6.338-3.194,13.288-4.806,20.255-4.806c5.467,0,10.944,0.992,16.141,2.992    C496.858,260.338,497.077,260.772,496.962,261.19z" fill="#121313"/>
	</g>
</g>
<g>
	<g>
		<path d="M348.178,198.457c-0.882-2.715-3.23-4.694-6.055-5.104l-54.861-7.973l-24.534-49.712c-1.264-2.56-3.871-4.181-6.726-4.181    c-2.855,0-5.462,1.621-6.726,4.181l-24.534,49.712l-54.861,7.973c-2.825,0.41-5.173,2.388-6.055,5.104    c-0.881,2.715-0.146,5.696,1.898,7.688l39.698,38.697l-9.371,54.641c-0.484,2.814,0.673,5.657,2.983,7.335    c2.309,1.676,5.37,1.901,7.898,0.571l49.07-25.798l49.069,25.798c1.097,0.577,2.296,0.861,3.489,0.861    c1.554,0,3.102-0.483,4.411-1.432c2.309-1.678,3.466-4.521,2.983-7.335l-9.371-54.641l39.698-38.697    C348.324,204.152,349.06,201.172,348.178,198.457z M293.287,236.853c-1.767,1.723-2.574,4.205-2.156,6.638l7.468,43.55    l-39.109-20.562c-1.092-0.574-2.291-0.861-3.49-0.861c-1.199,0-2.397,0.287-3.491,0.861l-39.109,20.562l7.469-43.55    c0.418-2.433-0.388-4.915-2.156-6.638l-31.64-30.842l43.726-6.354c2.443-0.355,4.554-1.889,5.647-4.103L256,155.932l19.554,39.622    c1.092,2.214,3.204,3.748,5.647,4.103l43.726,6.354L293.287,236.853z" fill="#121313"/>
	</g>
</g>
<g>
	<g>
		<path d="M320.568,125.877c-4.143,0-7.5,3.357-7.5,7.5v4.602c0,4.143,3.357,7.5,7.5,7.5s7.5-3.358,7.5-7.5v-4.602    C328.068,129.234,324.711,125.877,320.568,125.877z" fill="#121313"/>
	</g>
</g>
<g>
	<g>
		<path d="M320.568,156.26c-4.143,0-7.5,3.357-7.5,7.5v4.601c0,4.143,3.357,7.5,7.5,7.5s7.5-3.358,7.5-7.5v-4.601    C328.068,159.617,324.711,156.26,320.568,156.26z" fill="#121313"/>
	</g>
</g>
<g>
	<g>
		<path d="M338.061,143.369h-4.602c-4.142,0-7.5,3.357-7.5,7.5s3.358,7.5,7.5,7.5h4.602c4.142,0,7.5-3.357,7.5-7.5    S342.204,143.369,338.061,143.369z" fill="#121313"/>
	</g>
</g>
<g>
	<g>
		<path d="M307.68,143.369h-4.603c-4.143,0-7.5,3.357-7.5,7.5s3.357,7.5,7.5,7.5h4.603c4.142,0,7.5-3.357,7.5-7.5    S311.823,143.369,307.68,143.369z" fill="#121313"/>
	</g>
</g>
<g>
	<g>
		<path d="M276.637,308.158c-4.143,0-7.5,3.357-7.5,7.5v4.603c0,4.143,3.357,7.5,7.5,7.5c4.142,0,7.5-3.358,7.5-7.5v-4.603    C284.137,311.515,280.78,308.158,276.637,308.158z" fill="#121313"/>
	</g>
</g>
<g>
	<g>
		<path d="M276.637,338.54c-4.143,0-7.5,3.357-7.5,7.5v4.602c0,4.143,3.357,7.5,7.5,7.5c4.142,0,7.5-3.358,7.5-7.5v-4.602    C284.137,341.897,280.78,338.54,276.637,338.54z" fill="#121313"/>
	</g>
</g>
<g>
	<g>
		<path d="M294.129,325.651h-4.603c-4.143,0-7.5,3.357-7.5,7.5c0,4.142,3.357,7.5,7.5,7.5h4.603c4.143,0,7.5-3.358,7.5-7.5    C301.629,329.008,298.272,325.651,294.129,325.651z" fill="#121313"/>
	</g>
</g>
<g>
	<g>
		<path d="M263.747,325.651h-4.603c-4.142,0-7.5,3.357-7.5,7.5c0,4.142,3.358,7.5,7.5,7.5h4.603c4.143,0,7.5-3.358,7.5-7.5    C271.247,329.008,267.89,325.651,263.747,325.651z" fill="#121313"/>
	</g>
</g>
<g>
	<g>
		<path d="M198.892,100.461c-4.143,0-7.5,3.357-7.5,7.5v4.603c0,4.143,3.357,7.5,7.5,7.5c4.142,0,7.5-3.358,7.5-7.5v-4.603    C206.392,103.818,203.035,100.461,198.892,100.461z" fill="#121313"/>
	</g>
</g>
<g>
	<g>
		<path d="M198.892,130.843c-4.143,0-7.5,3.357-7.5,7.5v4.603c0,4.143,3.357,7.5,7.5,7.5c4.142,0,7.5-3.358,7.5-7.5v-4.603    C206.392,134.2,203.035,130.843,198.892,130.843z" fill="#121313"/>
	</g>
</g>
<g>
	<g>
		<path d="M216.385,117.953h-4.603c-4.143,0-7.5,3.357-7.5,7.5s3.357,7.5,7.5,7.5h4.603c4.143,0,7.5-3.357,7.5-7.5    S220.528,117.953,216.385,117.953z" fill="#121313"/>
	</g>
</g>
<g>
	<g>
		<path d="M186.003,117.953h-4.602c-4.143,0-7.5,3.357-7.5,7.5s3.357,7.5,7.5,7.5h4.602c4.143,0,7.5-3.357,7.5-7.5    S190.146,117.953,186.003,117.953z" fill="#121313"/>
	</g>
</g>
<g>
</g>
<g>
</g>
<g>
</g>
<g>
</g>
<g>
</g>
<g>
</g>
<g>
</g>
<g>
</g>
<g>
</g>
<g>
</g>
<g>
</g>
<g>
</g>
<g>
</g>
<g>
</g>
<g>
</g>
</svg>
